<?xml version="1.0" encoding="utf-8"?>
<!-- Generator: Adobe Illustrator 19.0.0, SVG Export Plug-In . SVG Version: 6.00 Build 0)  -->
<svg version="1.1" id="layer" xmlns="http://www.w3.org/2000/svg" xmlns:xlink="http://www.w3.org/1999/xlink" x="0px" y="0px"
	 viewBox="-153 -46 652 652" style="enable-background:new -153 -46 652 652;" xml:space="preserve">
<path d="M124.1,260.3c0-7.1-5-12.6-11.9-12.6H97.6v25.1h14.6C119.1,272.8,124.1,267.4,124.1,260.3L124.1,260.3z M146.4,260.3
	c0,18.6-14.9,33.5-34.2,33.5H97.6v30.7H75.3v-97.7h37C131.5,226.8,146.4,241.7,146.4,260.3L146.4,260.3z M350.9,324.5v-97.7h22.3
	v97.7H350.9z M277.1,274.3h16.7c6.1,0,11.2-5.8,11.2-13.3c0-7.5-5-13.3-11.2-13.3h-16.7V274.3z M277.1,293.8v30.6h-22.3v-97.7h39.1
	c18.4,0,33.4,14.9,33.5,33.3c0,0.1,0,0.1,0,0.2c0,12-6.9,23.7-17.7,28.8l20.5,35.4h-24l-17.6-30.6H277.1z M181.9,288.5
	c3.7,0.9,7.6,1.4,11.5,1.4c4,0,7.9-0.5,11.5-1.4l-11.5-36.2L181.9,288.5L181.9,288.5z M175.9,307.3l-5.5,17.2H146l33.2-97.7h28.5
	l33.2,97.7h-24.4l-5.5-17.2c-5.6,1.4-11.5,2.2-17.5,2.2C187.4,309.5,181.5,308.7,175.9,307.3z M429.9,246.6c-6,0-10.5,2.8-10.5,7.4
	c0,6.2,6.1,8.8,21.3,13.3c19.5,5.8,27.7,14.1,27.7,29.1c0,19-15.4,30-36.3,30c-26.6,0-37.6-20.1-39.1-24.1l19-10
	c4.2,7.5,11.3,12.3,20.1,12.3c7.9,0,14-2.2,14-8c0-8.3-13.4-10-20.2-12.4c-6.8-2.4-28.7-6.7-28.7-29.7c0-19.2,16.3-29.7,32.8-29.7
	c23.5,0,32.6,15.9,35.7,22l-18.6,9.8C443.6,251.8,439.7,246.6,429.9,246.6L429.9,246.6z M40.1,290c0.9,0,1,2.7-1.8,10.1
	c-11.9,32-39.9,54.7-81.1,54.7c-49.7,0-83.9-35.1-88.8-77.9c-0.1-0.7,0.5-1.4,1.2-1.5c0.2,0,0.3,0,0.5,0l56.1,12.2
	c0.1,0.4,9.3,27.2,35.6,27.2c26.5,0,43.7-27.1,43.7-56.8c0-29.8-18.6-42.3-24.2-46.7c-15.7,7.9-31.5,15.7-47.2,23.6
	c25.5,15.6,30.1,43.3,23.7,62.4c-1.8,5.4-3.7,5.9-3.4,3c2.2-19.2-5.8-53-52.8-63.9c-0.5-0.1-0.8-0.6-0.7-1.1
	c0.1-0.3,0.2-0.5,0.5-0.6l84.9-39.3c18.9,13.9,32,31.6,32,62.5c0,34.4-23.2,67.6-56.5,67.6c-31.5,0-43.5-27.4-43.6-27.8l-31.2-5.8
	c0.4,1.4,14.8,51.7,75.9,51.2c30.7-0.2,59.7-16.7,75.4-51.2C39,290.6,39.5,290,40.1,290L40.1,290z"/>
</svg>
